<mxfile host="Electron" modified="2024-06-28T20:48:44.815Z" agent="Mozilla/5.0 (Windows NT 10.0; Win64; x64) AppleWebKit/537.36 (KHTML, like Gecko) draw.io/24.6.4 Chrome/124.0.6367.207 Electron/30.0.6 Safari/537.36" etag="1CR9PzQQWISb3MiKAxhq" version="24.6.4" type="device">
  <diagram name="Page-1" id="yN7viWvwW5mH8_hlq8F5">
    <mxGraphModel dx="3610" dy="1737" grid="1" gridSize="10" guides="1" tooltips="1" connect="1" arrows="1" fold="1" page="1" pageScale="1" pageWidth="850" pageHeight="1100" math="0" shadow="0">
      <root>
        <mxCell id="0" />
        <mxCell id="1" parent="0" />
        <mxCell id="KC_PsP3GR4GyeqaPWDaR-60" value="&lt;font color=&quot;#999999&quot;&gt;Objectives &amp;amp;&amp;nbsp;&lt;/font&gt;&lt;div&gt;&lt;font color=&quot;#999999&quot;&gt;Resources&lt;/font&gt;&lt;/div&gt;" style="shape=ellipse;strokeColor=#82b366;fillColor=#d5e8d4;labelPosition=right;align=left;spacingLeft=10;html=1;container=0;movable=1;resizable=1;rotatable=1;deletable=1;editable=1;locked=0;connectable=1;" parent="1" vertex="1">
          <mxGeometry x="-1829.9994050343253" y="-473" width="24" height="24" as="geometry" />
        </mxCell>
        <mxCell id="KC_PsP3GR4GyeqaPWDaR-6" value="" style="group" parent="1" connectable="0" vertex="1">
          <mxGeometry x="-2320" y="-110" width="1100" height="65" as="geometry" />
        </mxCell>
        <mxCell id="KC_PsP3GR4GyeqaPWDaR-7" value="" style="verticalLabelPosition=bottom;verticalAlign=top;html=1;shape=mxgraph.basic.patternFillRect;fillStyle=diagGrid;step=5;fillStrokeWidth=0.2;fillStrokeColor=#dddddd;strokeColor=#666666;fontColor=#333333;fillColor=#E6E6E6;movable=1;resizable=1;rotatable=1;deletable=1;editable=1;locked=0;connectable=1;container=0;" parent="KC_PsP3GR4GyeqaPWDaR-6" vertex="1">
          <mxGeometry width="1100" height="60" as="geometry" />
        </mxCell>
        <mxCell id="KC_PsP3GR4GyeqaPWDaR-8" value="" style="group" parent="KC_PsP3GR4GyeqaPWDaR-6" connectable="0" vertex="1">
          <mxGeometry x="50.02059496567482" y="16" width="1008.0000000000003" height="49" as="geometry" />
        </mxCell>
        <mxCell id="KC_PsP3GR4GyeqaPWDaR-9" value="&lt;font color=&quot;#999999&quot;&gt;Key concepts&lt;/font&gt;" style="shape=ellipse;strokeColor=#82b366;fillColor=#d5e8d4;labelPosition=right;align=left;spacingLeft=10;html=1;container=0;movable=1;resizable=1;rotatable=1;deletable=1;editable=1;locked=0;connectable=1;" parent="KC_PsP3GR4GyeqaPWDaR-8" vertex="1">
          <mxGeometry x="1.9184653865522705e-13" width="24" height="24" as="geometry" />
        </mxCell>
        <mxCell id="KC_PsP3GR4GyeqaPWDaR-10" value="&lt;font color=&quot;#999999&quot;&gt;Define objectives&lt;/font&gt;" style="shape=ellipse;strokeColor=#82b366;fillColor=#d5e8d4;labelPosition=right;align=left;spacingLeft=10;html=1;container=0;movable=1;resizable=1;rotatable=1;deletable=1;editable=1;locked=0;connectable=1;" parent="KC_PsP3GR4GyeqaPWDaR-8" vertex="1">
          <mxGeometry x="165.00000000000023" width="24.000000000000004" height="24" as="geometry" />
        </mxCell>
        <mxCell id="KC_PsP3GR4GyeqaPWDaR-11" value="&lt;b style=&quot;border-color: var(--border-color);&quot;&gt;&lt;font color=&quot;#333333&quot;&gt;Design&amp;nbsp;study&lt;/font&gt;&lt;/b&gt;" style="shape=ellipse;strokeColor=#82b366;fillColor=#d5e8d4;labelPosition=right;align=left;spacingLeft=10;html=1;container=0;movable=1;resizable=1;rotatable=1;deletable=1;editable=1;locked=0;connectable=1;" parent="KC_PsP3GR4GyeqaPWDaR-8" vertex="1">
          <mxGeometry x="352.0000000000001" width="24" height="24" as="geometry" />
        </mxCell>
        <mxCell id="KC_PsP3GR4GyeqaPWDaR-12" value="&lt;font color=&quot;#999999&quot;&gt;Deploy cameras &amp;amp;&lt;br style=&quot;border-color: var(--border-color);&quot;&gt;retrieve data&lt;/font&gt;" style="shape=ellipse;strokeColor=#82b366;fillColor=#d5e8d4;labelPosition=right;align=left;spacingLeft=10;html=1;container=0;movable=1;resizable=1;rotatable=1;deletable=1;editable=1;locked=0;connectable=1;" parent="KC_PsP3GR4GyeqaPWDaR-8" vertex="1">
          <mxGeometry x="516.0000000000002" width="24.000000000000004" height="24" as="geometry" />
        </mxCell>
        <mxCell id="KC_PsP3GR4GyeqaPWDaR-13" value="4" style="shape=ellipse;strokeColor=none;fillColor=#9e9e9e;fontColor=#ffffff;movable=1;resizable=1;rotatable=1;deletable=1;editable=1;locked=0;connectable=1;container=0;" parent="KC_PsP3GR4GyeqaPWDaR-8" vertex="1">
          <mxGeometry x="516.0000000000002" width="24.000000000000004" height="24" as="geometry" />
        </mxCell>
        <mxCell id="KC_PsP3GR4GyeqaPWDaR-14" value="&lt;p style=&quot;line-height: 100%;&quot;&gt;&lt;font color=&quot;#999999&quot;&gt;Backup &amp;amp; &lt;br&gt;store data&lt;/font&gt;&lt;/p&gt;" style="shape=ellipse;strokeColor=#82b366;fillColor=#d5e8d4;labelPosition=right;align=left;spacingLeft=10;html=1;container=0;movable=1;resizable=1;rotatable=1;deletable=1;editable=1;locked=0;connectable=1;" parent="KC_PsP3GR4GyeqaPWDaR-8" vertex="1">
          <mxGeometry x="718.0000000000003" width="24.000000000000004" height="24" as="geometry" />
        </mxCell>
        <mxCell id="KC_PsP3GR4GyeqaPWDaR-15" value="5" style="shape=ellipse;strokeColor=none;fillColor=#9e9e9e;fontColor=#ffffff;movable=1;resizable=1;rotatable=1;deletable=1;editable=1;locked=0;connectable=1;container=0;" parent="KC_PsP3GR4GyeqaPWDaR-8" vertex="1">
          <mxGeometry x="718.0000000000003" width="24.000000000000004" height="24" as="geometry" />
        </mxCell>
        <mxCell id="KC_PsP3GR4GyeqaPWDaR-16" value="&lt;p style=&quot;line-height: 100%;&quot;&gt;&lt;font color=&quot;#999999&quot;&gt;Run analyses&lt;/font&gt;&lt;/p&gt;" style="shape=ellipse;strokeColor=#82b366;fillColor=#d5e8d4;labelPosition=right;align=left;spacingLeft=10;html=1;container=0;movable=1;resizable=1;rotatable=1;deletable=1;editable=1;locked=0;connectable=1;" parent="KC_PsP3GR4GyeqaPWDaR-8" vertex="1">
          <mxGeometry x="885.0000000000002" y="1" width="24.000000000000004" height="24" as="geometry" />
        </mxCell>
        <mxCell id="KC_PsP3GR4GyeqaPWDaR-17" value="6" style="shape=ellipse;strokeColor=none;fillColor=#9e9e9e;fontColor=#ffffff;movable=1;resizable=1;rotatable=1;deletable=1;editable=1;locked=0;connectable=1;container=0;" parent="KC_PsP3GR4GyeqaPWDaR-8" vertex="1">
          <mxGeometry x="885" width="24" height="26" as="geometry" />
        </mxCell>
        <mxCell id="KC_PsP3GR4GyeqaPWDaR-18" value="" style="group" parent="KC_PsP3GR4GyeqaPWDaR-8" connectable="0" vertex="1">
          <mxGeometry y="2" width="1008.0000000000003" height="47" as="geometry" />
        </mxCell>
        <mxCell id="KC_PsP3GR4GyeqaPWDaR-19" value="" style="dashed=0;shape=mxgraph.gmdl.check;strokeColor=#ffffff;strokeWidth=2;movable=1;resizable=1;rotatable=1;deletable=1;editable=1;locked=0;connectable=1;container=0;" parent="KC_PsP3GR4GyeqaPWDaR-18" vertex="1">
          <mxGeometry x="6" y="5" width="12" height="10" as="geometry">
            <mxPoint x="-6" y="-5" as="offset" />
          </mxGeometry>
        </mxCell>
        <mxCell id="KC_PsP3GR4GyeqaPWDaR-23" value="&lt;font color=&quot;#999999&quot;&gt;Objectives &amp;amp;&amp;nbsp;&lt;/font&gt;&lt;div&gt;&lt;font color=&quot;#999999&quot;&gt;Resources&lt;/font&gt;&lt;/div&gt;" style="shape=ellipse;strokeColor=#82b366;fillColor=#d5e8d4;labelPosition=right;align=left;spacingLeft=10;html=1;container=0;movable=1;resizable=1;rotatable=1;deletable=1;editable=1;locked=0;connectable=1;" parent="1" vertex="1">
          <mxGeometry x="-2009.9994050343253" y="-473" width="24" height="24" as="geometry" />
        </mxCell>
        <mxCell id="KC_PsP3GR4GyeqaPWDaR-33" value="" style="dashed=0;shape=mxgraph.gmdl.check;strokeColor=#ffffff;strokeWidth=2;movable=1;resizable=1;rotatable=1;deletable=1;editable=1;locked=0;connectable=1;container=0;" parent="1" vertex="1">
          <mxGeometry x="-2004" y="-466" width="12" height="10" as="geometry">
            <mxPoint x="-6" y="-5" as="offset" />
          </mxGeometry>
        </mxCell>
        <mxCell id="KC_PsP3GR4GyeqaPWDaR-41" value="1" style="shape=ellipse;strokeColor=none;fillColor=#9e9e9e;fontColor=#ffffff;movable=1;resizable=1;rotatable=1;deletable=1;editable=1;locked=0;connectable=1;container=0;" parent="1" vertex="1">
          <mxGeometry x="-1829.999405034325" y="-473" width="24.000000000000004" height="24" as="geometry" />
        </mxCell>
        <mxCell id="KC_PsP3GR4GyeqaPWDaR-48" value="&lt;font color=&quot;#999999&quot;&gt;Study area &amp;amp; Site&lt;/font&gt;&lt;div&gt;&lt;span style=&quot;color: rgb(153, 153, 153); background-color: initial;&quot;&gt;selection constraints&lt;/span&gt;&lt;/div&gt;" style="shape=ellipse;strokeColor=#82b366;fillColor=#d5e8d4;labelPosition=right;align=left;spacingLeft=10;html=1;container=0;movable=1;resizable=1;rotatable=1;deletable=1;editable=1;locked=0;connectable=1;" parent="1" vertex="1">
          <mxGeometry x="-2010" y="-433" width="24" height="24" as="geometry" />
        </mxCell>
        <mxCell id="KC_PsP3GR4GyeqaPWDaR-49" value="" style="dashed=0;shape=mxgraph.gmdl.check;strokeColor=#ffffff;strokeWidth=2;movable=1;resizable=1;rotatable=1;deletable=1;editable=1;locked=0;connectable=1;container=0;" parent="1" vertex="1">
          <mxGeometry x="-2004" y="-426" width="12" height="10" as="geometry">
            <mxPoint x="-6" y="-5" as="offset" />
          </mxGeometry>
        </mxCell>
        <mxCell id="KC_PsP3GR4GyeqaPWDaR-50" value="&lt;font color=&quot;#999999&quot;&gt;Duration / Timing&lt;/font&gt;" style="shape=ellipse;strokeColor=#82b366;fillColor=#d5e8d4;labelPosition=right;align=left;spacingLeft=10;html=1;container=0;movable=1;resizable=1;rotatable=1;deletable=1;editable=1;locked=0;connectable=1;" parent="1" vertex="1">
          <mxGeometry x="-2010" y="-393" width="24" height="24" as="geometry" />
        </mxCell>
        <mxCell id="KC_PsP3GR4GyeqaPWDaR-51" value="" style="dashed=0;shape=mxgraph.gmdl.check;strokeColor=#ffffff;strokeWidth=2;movable=1;resizable=1;rotatable=1;deletable=1;editable=1;locked=0;connectable=1;container=0;" parent="1" vertex="1">
          <mxGeometry x="-2004" y="-386" width="12" height="10" as="geometry">
            <mxPoint x="-6" y="-5" as="offset" />
          </mxGeometry>
        </mxCell>
        <mxCell id="KC_PsP3GR4GyeqaPWDaR-52" value="&lt;font color=&quot;#999999&quot;&gt;Target species&lt;/font&gt;" style="shape=ellipse;strokeColor=#82b366;fillColor=#d5e8d4;labelPosition=right;align=left;spacingLeft=10;html=1;container=0;movable=1;resizable=1;rotatable=1;deletable=1;editable=1;locked=0;connectable=1;" parent="1" vertex="1">
          <mxGeometry x="-2010" y="-356" width="24" height="24" as="geometry" />
        </mxCell>
        <mxCell id="KC_PsP3GR4GyeqaPWDaR-53" value="" style="dashed=0;shape=mxgraph.gmdl.check;strokeColor=#ffffff;strokeWidth=2;movable=1;resizable=1;rotatable=1;deletable=1;editable=1;locked=0;connectable=1;container=0;" parent="1" vertex="1">
          <mxGeometry x="-2004" y="-349" width="12" height="10" as="geometry">
            <mxPoint x="-6" y="-5" as="offset" />
          </mxGeometry>
        </mxCell>
        <mxCell id="KC_PsP3GR4GyeqaPWDaR-54" value="&lt;font color=&quot;#999999&quot;&gt;Equipment &amp;amp;&amp;nbsp;&lt;/font&gt;&lt;div&gt;&lt;font color=&quot;#999999&quot;&gt;Deployment&lt;/font&gt;&lt;/div&gt;" style="shape=ellipse;strokeColor=#82b366;fillColor=#d5e8d4;labelPosition=right;align=left;spacingLeft=10;html=1;container=0;movable=1;resizable=1;rotatable=1;deletable=1;editable=1;locked=0;connectable=1;" parent="1" vertex="1">
          <mxGeometry x="-2010" y="-316" width="24" height="24" as="geometry" />
        </mxCell>
        <mxCell id="KC_PsP3GR4GyeqaPWDaR-55" value="" style="dashed=0;shape=mxgraph.gmdl.check;strokeColor=#ffffff;strokeWidth=2;movable=1;resizable=1;rotatable=1;deletable=1;editable=1;locked=0;connectable=1;container=0;" parent="1" vertex="1">
          <mxGeometry x="-2004" y="-309" width="12" height="10" as="geometry">
            <mxPoint x="-6" y="-5" as="offset" />
          </mxGeometry>
        </mxCell>
        <mxCell id="KC_PsP3GR4GyeqaPWDaR-56" value="&lt;font color=&quot;#999999&quot;&gt;Data analysis&lt;/font&gt;" style="shape=ellipse;strokeColor=#82b366;fillColor=#d5e8d4;labelPosition=right;align=left;spacingLeft=10;html=1;container=0;movable=1;resizable=1;rotatable=1;deletable=1;editable=1;locked=0;connectable=1;" parent="1" vertex="1">
          <mxGeometry x="-2010" y="-276" width="24" height="24" as="geometry" />
        </mxCell>
        <mxCell id="KC_PsP3GR4GyeqaPWDaR-57" value="" style="dashed=0;shape=mxgraph.gmdl.check;strokeColor=#ffffff;strokeWidth=2;movable=1;resizable=1;rotatable=1;deletable=1;editable=1;locked=0;connectable=1;container=0;" parent="1" vertex="1">
          <mxGeometry x="-2004" y="-269" width="12" height="10" as="geometry">
            <mxPoint x="-6" y="-5" as="offset" />
          </mxGeometry>
        </mxCell>
        <mxCell id="KC_PsP3GR4GyeqaPWDaR-58" value="&lt;font color=&quot;#999999&quot;&gt;Recommendations&lt;/font&gt;" style="shape=ellipse;strokeColor=#82b366;fillColor=#d5e8d4;labelPosition=right;align=left;spacingLeft=10;html=1;container=0;movable=1;resizable=1;rotatable=1;deletable=1;editable=1;locked=0;connectable=1;" parent="1" vertex="1">
          <mxGeometry x="-2010" y="-241" width="24" height="24" as="geometry" />
        </mxCell>
        <mxCell id="KC_PsP3GR4GyeqaPWDaR-59" value="" style="dashed=0;shape=mxgraph.gmdl.check;strokeColor=#ffffff;strokeWidth=2;movable=1;resizable=1;rotatable=1;deletable=1;editable=1;locked=0;connectable=1;container=0;" parent="1" vertex="1">
          <mxGeometry x="-2003.9994050343253" y="-234" width="12" height="10" as="geometry">
            <mxPoint x="-6" y="-5" as="offset" />
          </mxGeometry>
        </mxCell>
        <mxCell id="KC_PsP3GR4GyeqaPWDaR-62" value="&lt;font color=&quot;#999999&quot;&gt;Study area &amp;amp; Site&lt;/font&gt;&lt;div&gt;&lt;span style=&quot;color: rgb(153, 153, 153); background-color: initial;&quot;&gt;selection constraints&lt;/span&gt;&lt;/div&gt;" style="shape=ellipse;strokeColor=#82b366;fillColor=#d5e8d4;labelPosition=right;align=left;spacingLeft=10;html=1;container=0;movable=1;resizable=1;rotatable=1;deletable=1;editable=1;locked=0;connectable=1;" parent="1" vertex="1">
          <mxGeometry x="-1829.9994050343253" y="-433" width="24" height="24" as="geometry" />
        </mxCell>
        <mxCell id="KC_PsP3GR4GyeqaPWDaR-63" value="" style="dashed=0;shape=mxgraph.gmdl.check;strokeColor=#ffffff;strokeWidth=2;movable=1;resizable=1;rotatable=1;deletable=1;editable=1;locked=0;connectable=1;container=0;" parent="1" vertex="1">
          <mxGeometry x="-1823.9994050343253" y="-426" width="12" height="10" as="geometry">
            <mxPoint x="-6" y="-5" as="offset" />
          </mxGeometry>
        </mxCell>
        <mxCell id="KC_PsP3GR4GyeqaPWDaR-64" value="&lt;font color=&quot;#999999&quot;&gt;Duration / Timing&lt;/font&gt;" style="shape=ellipse;strokeColor=#82b366;fillColor=#d5e8d4;labelPosition=right;align=left;spacingLeft=10;html=1;container=0;movable=1;resizable=1;rotatable=1;deletable=1;editable=1;locked=0;connectable=1;" parent="1" vertex="1">
          <mxGeometry x="-1829.9994050343253" y="-393" width="24" height="24" as="geometry" />
        </mxCell>
        <mxCell id="KC_PsP3GR4GyeqaPWDaR-65" value="" style="dashed=0;shape=mxgraph.gmdl.check;strokeColor=#ffffff;strokeWidth=2;movable=1;resizable=1;rotatable=1;deletable=1;editable=1;locked=0;connectable=1;container=0;" parent="1" vertex="1">
          <mxGeometry x="-1823.9994050343253" y="-386" width="12" height="10" as="geometry">
            <mxPoint x="-6" y="-5" as="offset" />
          </mxGeometry>
        </mxCell>
        <mxCell id="KC_PsP3GR4GyeqaPWDaR-66" value="&lt;font color=&quot;#999999&quot;&gt;Target species&lt;/font&gt;" style="shape=ellipse;strokeColor=#82b366;fillColor=#d5e8d4;labelPosition=right;align=left;spacingLeft=10;html=1;container=0;movable=1;resizable=1;rotatable=1;deletable=1;editable=1;locked=0;connectable=1;" parent="1" vertex="1">
          <mxGeometry x="-1829.9994050343253" y="-356" width="24" height="24" as="geometry" />
        </mxCell>
        <mxCell id="KC_PsP3GR4GyeqaPWDaR-67" value="" style="dashed=0;shape=mxgraph.gmdl.check;strokeColor=#ffffff;strokeWidth=2;movable=1;resizable=1;rotatable=1;deletable=1;editable=1;locked=0;connectable=1;container=0;" parent="1" vertex="1">
          <mxGeometry x="-1823.9994050343253" y="-349" width="12" height="10" as="geometry">
            <mxPoint x="-6" y="-5" as="offset" />
          </mxGeometry>
        </mxCell>
        <mxCell id="KC_PsP3GR4GyeqaPWDaR-68" value="&lt;font color=&quot;#999999&quot;&gt;Equipment &amp;amp;&amp;nbsp;&lt;/font&gt;&lt;div&gt;&lt;font color=&quot;#999999&quot;&gt;Deployment&lt;/font&gt;&lt;/div&gt;" style="shape=ellipse;strokeColor=#82b366;fillColor=#d5e8d4;labelPosition=right;align=left;spacingLeft=10;html=1;container=0;movable=1;resizable=1;rotatable=1;deletable=1;editable=1;locked=0;connectable=1;" parent="1" vertex="1">
          <mxGeometry x="-1829.9994050343253" y="-316" width="24" height="24" as="geometry" />
        </mxCell>
        <mxCell id="KC_PsP3GR4GyeqaPWDaR-69" value="" style="dashed=0;shape=mxgraph.gmdl.check;strokeColor=#ffffff;strokeWidth=2;movable=1;resizable=1;rotatable=1;deletable=1;editable=1;locked=0;connectable=1;container=0;" parent="1" vertex="1">
          <mxGeometry x="-1823.9994050343253" y="-309" width="12" height="10" as="geometry">
            <mxPoint x="-6" y="-5" as="offset" />
          </mxGeometry>
        </mxCell>
        <mxCell id="KC_PsP3GR4GyeqaPWDaR-70" value="&lt;font color=&quot;#999999&quot;&gt;Data analysis&lt;/font&gt;" style="shape=ellipse;strokeColor=#82b366;fillColor=#d5e8d4;labelPosition=right;align=left;spacingLeft=10;html=1;container=0;movable=1;resizable=1;rotatable=1;deletable=1;editable=1;locked=0;connectable=1;" parent="1" vertex="1">
          <mxGeometry x="-1829.9994050343253" y="-276" width="24" height="24" as="geometry" />
        </mxCell>
        <mxCell id="KC_PsP3GR4GyeqaPWDaR-71" value="" style="dashed=0;shape=mxgraph.gmdl.check;strokeColor=#ffffff;strokeWidth=2;movable=1;resizable=1;rotatable=1;deletable=1;editable=1;locked=0;connectable=1;container=0;" parent="1" vertex="1">
          <mxGeometry x="-1823.9994050343253" y="-269" width="12" height="10" as="geometry">
            <mxPoint x="-6" y="-5" as="offset" />
          </mxGeometry>
        </mxCell>
        <mxCell id="KC_PsP3GR4GyeqaPWDaR-72" value="&lt;font color=&quot;#999999&quot;&gt;Recommendations&lt;/font&gt;" style="shape=ellipse;strokeColor=#82b366;fillColor=#d5e8d4;labelPosition=right;align=left;spacingLeft=10;html=1;container=0;movable=1;resizable=1;rotatable=1;deletable=1;editable=1;locked=0;connectable=1;" parent="1" vertex="1">
          <mxGeometry x="-1829.9994050343253" y="-241" width="24" height="24" as="geometry" />
        </mxCell>
        <mxCell id="KC_PsP3GR4GyeqaPWDaR-73" value="" style="dashed=0;shape=mxgraph.gmdl.check;strokeColor=#ffffff;strokeWidth=2;movable=1;resizable=1;rotatable=1;deletable=1;editable=1;locked=0;connectable=1;container=0;" parent="1" vertex="1">
          <mxGeometry x="-1823.9994050343253" y="-234" width="12" height="10" as="geometry">
            <mxPoint x="-6" y="-5" as="offset" />
          </mxGeometry>
        </mxCell>
        <mxCell id="KC_PsP3GR4GyeqaPWDaR-74" value="&lt;div&gt;&lt;br&gt;&lt;/div&gt;" style="shape=ellipse;strokeColor=#82b366;fillColor=#d5e8d4;labelPosition=right;align=left;spacingLeft=10;html=1;container=0;movable=1;resizable=1;rotatable=1;deletable=1;editable=1;locked=0;connectable=1;" parent="1" vertex="1">
          <mxGeometry x="-1829.9994050343253" y="-433" width="24" height="24" as="geometry" />
        </mxCell>
        <mxCell id="KC_PsP3GR4GyeqaPWDaR-75" value="2" style="shape=ellipse;strokeColor=none;fillColor=#9e9e9e;fontColor=#ffffff;movable=1;resizable=1;rotatable=1;deletable=1;editable=1;locked=0;connectable=1;container=0;" parent="1" vertex="1">
          <mxGeometry x="-1829.999405034325" y="-433" width="24.000000000000004" height="24" as="geometry" />
        </mxCell>
        <mxCell id="KC_PsP3GR4GyeqaPWDaR-76" value="" style="shape=ellipse;strokeColor=#82b366;fillColor=#d5e8d4;labelPosition=right;align=left;spacingLeft=10;html=1;container=0;movable=1;resizable=1;rotatable=1;deletable=1;editable=1;locked=0;connectable=1;" parent="1" vertex="1">
          <mxGeometry x="-1829.9994050343253" y="-393" width="24" height="24" as="geometry" />
        </mxCell>
        <mxCell id="KC_PsP3GR4GyeqaPWDaR-78" value="" style="shape=ellipse;strokeColor=#82b366;fillColor=#d5e8d4;labelPosition=right;align=left;spacingLeft=10;html=1;container=0;movable=1;resizable=1;rotatable=1;deletable=1;editable=1;locked=0;connectable=1;" parent="1" vertex="1">
          <mxGeometry x="-1829.9994050343253" y="-356" width="24" height="24" as="geometry" />
        </mxCell>
        <mxCell id="KC_PsP3GR4GyeqaPWDaR-82" value="3" style="shape=ellipse;strokeColor=none;fillColor=#9e9e9e;fontColor=#ffffff;movable=1;resizable=1;rotatable=1;deletable=1;editable=1;locked=0;connectable=1;container=0;" parent="1" vertex="1">
          <mxGeometry x="-1829.999405034325" y="-393" width="24.000000000000004" height="24" as="geometry" />
        </mxCell>
        <mxCell id="KC_PsP3GR4GyeqaPWDaR-83" value="4" style="shape=ellipse;strokeColor=none;fillColor=#9e9e9e;fontColor=#ffffff;movable=1;resizable=1;rotatable=1;deletable=1;editable=1;locked=0;connectable=1;container=0;" parent="1" vertex="1">
          <mxGeometry x="-1829.999405034325" y="-356" width="24.000000000000004" height="24" as="geometry" />
        </mxCell>
        <mxCell id="KC_PsP3GR4GyeqaPWDaR-84" value="5" style="shape=ellipse;strokeColor=none;fillColor=#9e9e9e;fontColor=#ffffff;movable=1;resizable=1;rotatable=1;deletable=1;editable=1;locked=0;connectable=1;container=0;" parent="1" vertex="1">
          <mxGeometry x="-1829.999405034325" y="-316" width="24.000000000000004" height="24" as="geometry" />
        </mxCell>
        <mxCell id="KC_PsP3GR4GyeqaPWDaR-85" value="6" style="shape=ellipse;strokeColor=none;fillColor=#9e9e9e;fontColor=#ffffff;movable=1;resizable=1;rotatable=1;deletable=1;editable=1;locked=0;connectable=1;container=0;" parent="1" vertex="1">
          <mxGeometry x="-1829.999405034325" y="-276" width="24.000000000000004" height="24" as="geometry" />
        </mxCell>
        <mxCell id="KC_PsP3GR4GyeqaPWDaR-86" value="7" style="shape=ellipse;strokeColor=none;fillColor=#9e9e9e;fontColor=#ffffff;movable=1;resizable=1;rotatable=1;deletable=1;editable=1;locked=0;connectable=1;container=0;" parent="1" vertex="1">
          <mxGeometry x="-1829.999405034325" y="-241" width="24.000000000000004" height="24" as="geometry" />
        </mxCell>
        <mxCell id="KC_PsP3GR4GyeqaPWDaR-111" value="&lt;b style=&quot;&quot;&gt;&lt;font color=&quot;#333333&quot;&gt;Objectives &amp;amp;&amp;nbsp;&lt;/font&gt;&lt;/b&gt;&lt;div&gt;&lt;b style=&quot;&quot;&gt;&lt;font color=&quot;#333333&quot;&gt;Resources&lt;/font&gt;&lt;/b&gt;&lt;/div&gt;" style="shape=ellipse;strokeColor=#82b366;fillColor=#d5e8d4;labelPosition=right;align=left;spacingLeft=10;html=1;container=0;movable=1;resizable=1;rotatable=1;deletable=1;editable=1;locked=0;connectable=1;" parent="1" vertex="1">
          <mxGeometry x="-1649.9994050343253" y="-472" width="24" height="24" as="geometry" />
        </mxCell>
        <mxCell id="KC_PsP3GR4GyeqaPWDaR-112" value="1" style="shape=ellipse;strokeColor=none;fillColor=#9e9e9e;fontColor=#ffffff;movable=1;resizable=1;rotatable=1;deletable=1;editable=1;locked=0;connectable=1;container=0;" parent="1" vertex="1">
          <mxGeometry x="-1649.999405034325" y="-472" width="24.000000000000004" height="24" as="geometry" />
        </mxCell>
        <mxCell id="KC_PsP3GR4GyeqaPWDaR-113" value="&lt;b style=&quot;&quot;&gt;&lt;font color=&quot;#333333&quot;&gt;Study area &amp;amp; Site&lt;/font&gt;&lt;/b&gt;&lt;div&gt;&lt;span style=&quot;background-color: initial;&quot;&gt;&lt;b style=&quot;&quot;&gt;&lt;font color=&quot;#333333&quot;&gt;selection constraints&lt;/font&gt;&lt;/b&gt;&lt;/span&gt;&lt;/div&gt;" style="shape=ellipse;strokeColor=#82b366;fillColor=#d5e8d4;labelPosition=right;align=left;spacingLeft=10;html=1;container=0;movable=1;resizable=1;rotatable=1;deletable=1;editable=1;locked=0;connectable=1;" parent="1" vertex="1">
          <mxGeometry x="-1649.9994050343253" y="-432" width="24" height="24" as="geometry" />
        </mxCell>
        <mxCell id="KC_PsP3GR4GyeqaPWDaR-114" value="" style="dashed=0;shape=mxgraph.gmdl.check;strokeColor=#ffffff;strokeWidth=2;movable=1;resizable=1;rotatable=1;deletable=1;editable=1;locked=0;connectable=1;container=0;" parent="1" vertex="1">
          <mxGeometry x="-1643.9994050343253" y="-425" width="12" height="10" as="geometry">
            <mxPoint x="-6" y="-5" as="offset" />
          </mxGeometry>
        </mxCell>
        <mxCell id="KC_PsP3GR4GyeqaPWDaR-115" value="&lt;b style=&quot;&quot;&gt;&lt;font color=&quot;#333333&quot;&gt;Duration / Timing&lt;/font&gt;&lt;/b&gt;" style="shape=ellipse;strokeColor=#82b366;fillColor=#d5e8d4;labelPosition=right;align=left;spacingLeft=10;html=1;container=0;movable=1;resizable=1;rotatable=1;deletable=1;editable=1;locked=0;connectable=1;" parent="1" vertex="1">
          <mxGeometry x="-1649.9994050343253" y="-392" width="24" height="24" as="geometry" />
        </mxCell>
        <mxCell id="KC_PsP3GR4GyeqaPWDaR-116" value="" style="dashed=0;shape=mxgraph.gmdl.check;strokeColor=#ffffff;strokeWidth=2;movable=1;resizable=1;rotatable=1;deletable=1;editable=1;locked=0;connectable=1;container=0;" parent="1" vertex="1">
          <mxGeometry x="-1643.9994050343253" y="-385" width="12" height="10" as="geometry">
            <mxPoint x="-6" y="-5" as="offset" />
          </mxGeometry>
        </mxCell>
        <mxCell id="KC_PsP3GR4GyeqaPWDaR-117" value="&lt;b style=&quot;&quot;&gt;&lt;font color=&quot;#333333&quot;&gt;Target species&lt;/font&gt;&lt;/b&gt;" style="shape=ellipse;strokeColor=#82b366;fillColor=#d5e8d4;labelPosition=right;align=left;spacingLeft=10;html=1;container=0;movable=1;resizable=1;rotatable=1;deletable=1;editable=1;locked=0;connectable=1;" parent="1" vertex="1">
          <mxGeometry x="-1649.9994050343253" y="-355" width="24" height="24" as="geometry" />
        </mxCell>
        <mxCell id="KC_PsP3GR4GyeqaPWDaR-118" value="" style="dashed=0;shape=mxgraph.gmdl.check;strokeColor=#ffffff;strokeWidth=2;movable=1;resizable=1;rotatable=1;deletable=1;editable=1;locked=0;connectable=1;container=0;" parent="1" vertex="1">
          <mxGeometry x="-1643.9994050343253" y="-348" width="12" height="10" as="geometry">
            <mxPoint x="-6" y="-5" as="offset" />
          </mxGeometry>
        </mxCell>
        <mxCell id="KC_PsP3GR4GyeqaPWDaR-119" value="&lt;font color=&quot;#333333&quot;&gt;&lt;b&gt;Equipment &amp;amp;&amp;nbsp;&lt;/b&gt;&lt;/font&gt;&lt;div&gt;&lt;font color=&quot;#333333&quot;&gt;&lt;b&gt;Deployment&lt;/b&gt;&lt;/font&gt;&lt;/div&gt;" style="shape=ellipse;strokeColor=#82b366;fillColor=#d5e8d4;labelPosition=right;align=left;spacingLeft=10;html=1;container=0;movable=1;resizable=1;rotatable=1;deletable=1;editable=1;locked=0;connectable=1;" parent="1" vertex="1">
          <mxGeometry x="-1649.9994050343253" y="-315" width="24" height="24" as="geometry" />
        </mxCell>
        <mxCell id="KC_PsP3GR4GyeqaPWDaR-120" value="" style="dashed=0;shape=mxgraph.gmdl.check;strokeColor=#ffffff;strokeWidth=2;movable=1;resizable=1;rotatable=1;deletable=1;editable=1;locked=0;connectable=1;container=0;" parent="1" vertex="1">
          <mxGeometry x="-1643.9994050343253" y="-308" width="12" height="10" as="geometry">
            <mxPoint x="-6" y="-5" as="offset" />
          </mxGeometry>
        </mxCell>
        <mxCell id="KC_PsP3GR4GyeqaPWDaR-121" value="&lt;font color=&quot;#333333&quot;&gt;&lt;b&gt;Data analysis&lt;/b&gt;&lt;/font&gt;" style="shape=ellipse;strokeColor=#82b366;fillColor=#d5e8d4;labelPosition=right;align=left;spacingLeft=10;html=1;container=0;movable=1;resizable=1;rotatable=1;deletable=1;editable=1;locked=0;connectable=1;" parent="1" vertex="1">
          <mxGeometry x="-1649.9994050343253" y="-275" width="24" height="24" as="geometry" />
        </mxCell>
        <mxCell id="KC_PsP3GR4GyeqaPWDaR-122" value="" style="dashed=0;shape=mxgraph.gmdl.check;strokeColor=#ffffff;strokeWidth=2;movable=1;resizable=1;rotatable=1;deletable=1;editable=1;locked=0;connectable=1;container=0;" parent="1" vertex="1">
          <mxGeometry x="-1643.9994050343253" y="-268" width="12" height="10" as="geometry">
            <mxPoint x="-6" y="-5" as="offset" />
          </mxGeometry>
        </mxCell>
        <mxCell id="KC_PsP3GR4GyeqaPWDaR-123" value="&lt;font color=&quot;#333333&quot;&gt;&lt;b&gt;Recommendations&lt;/b&gt;&lt;/font&gt;" style="shape=ellipse;strokeColor=#82b366;fillColor=#d5e8d4;labelPosition=right;align=left;spacingLeft=10;html=1;container=0;movable=1;resizable=1;rotatable=1;deletable=1;editable=1;locked=0;connectable=1;" parent="1" vertex="1">
          <mxGeometry x="-1649.9994050343253" y="-240" width="24" height="24" as="geometry" />
        </mxCell>
        <mxCell id="KC_PsP3GR4GyeqaPWDaR-124" value="" style="dashed=0;shape=mxgraph.gmdl.check;strokeColor=#ffffff;strokeWidth=2;movable=1;resizable=1;rotatable=1;deletable=1;editable=1;locked=0;connectable=1;container=0;" parent="1" vertex="1">
          <mxGeometry x="-1643.9994050343253" y="-233" width="12" height="10" as="geometry">
            <mxPoint x="-6" y="-5" as="offset" />
          </mxGeometry>
        </mxCell>
        <mxCell id="KC_PsP3GR4GyeqaPWDaR-125" value="&lt;div&gt;&lt;br&gt;&lt;/div&gt;" style="shape=ellipse;strokeColor=#82b366;fillColor=#d5e8d4;labelPosition=right;align=left;spacingLeft=10;html=1;container=0;movable=1;resizable=1;rotatable=1;deletable=1;editable=1;locked=0;connectable=1;" parent="1" vertex="1">
          <mxGeometry x="-1649.9994050343253" y="-432" width="24" height="24" as="geometry" />
        </mxCell>
        <mxCell id="KC_PsP3GR4GyeqaPWDaR-126" value="2" style="shape=ellipse;strokeColor=none;fillColor=#9e9e9e;fontColor=#ffffff;movable=1;resizable=1;rotatable=1;deletable=1;editable=1;locked=0;connectable=1;container=0;" parent="1" vertex="1">
          <mxGeometry x="-1649.999405034325" y="-432" width="24.000000000000004" height="24" as="geometry" />
        </mxCell>
        <mxCell id="KC_PsP3GR4GyeqaPWDaR-127" value="" style="shape=ellipse;strokeColor=#82b366;fillColor=#d5e8d4;labelPosition=right;align=left;spacingLeft=10;html=1;container=0;movable=1;resizable=1;rotatable=1;deletable=1;editable=1;locked=0;connectable=1;" parent="1" vertex="1">
          <mxGeometry x="-1649.9994050343253" y="-392" width="24" height="24" as="geometry" />
        </mxCell>
        <mxCell id="KC_PsP3GR4GyeqaPWDaR-128" value="" style="shape=ellipse;strokeColor=#82b366;fillColor=#d5e8d4;labelPosition=right;align=left;spacingLeft=10;html=1;container=0;movable=1;resizable=1;rotatable=1;deletable=1;editable=1;locked=0;connectable=1;" parent="1" vertex="1">
          <mxGeometry x="-1649.9994050343253" y="-355" width="24" height="24" as="geometry" />
        </mxCell>
        <mxCell id="KC_PsP3GR4GyeqaPWDaR-129" value="3" style="shape=ellipse;strokeColor=none;fillColor=#9e9e9e;fontColor=#ffffff;movable=1;resizable=1;rotatable=1;deletable=1;editable=1;locked=0;connectable=1;container=0;" parent="1" vertex="1">
          <mxGeometry x="-1649.999405034325" y="-392" width="24.000000000000004" height="24" as="geometry" />
        </mxCell>
        <mxCell id="KC_PsP3GR4GyeqaPWDaR-130" value="4" style="shape=ellipse;strokeColor=none;fillColor=#9e9e9e;fontColor=#ffffff;movable=1;resizable=1;rotatable=1;deletable=1;editable=1;locked=0;connectable=1;container=0;" parent="1" vertex="1">
          <mxGeometry x="-1649.999405034325" y="-355" width="24.000000000000004" height="24" as="geometry" />
        </mxCell>
        <mxCell id="KC_PsP3GR4GyeqaPWDaR-131" value="5" style="shape=ellipse;strokeColor=none;fillColor=#9e9e9e;fontColor=#ffffff;movable=1;resizable=1;rotatable=1;deletable=1;editable=1;locked=0;connectable=1;container=0;" parent="1" vertex="1">
          <mxGeometry x="-1649.999405034325" y="-315" width="24.000000000000004" height="24" as="geometry" />
        </mxCell>
        <mxCell id="KC_PsP3GR4GyeqaPWDaR-132" value="6" style="shape=ellipse;strokeColor=none;fillColor=#9e9e9e;fontColor=#ffffff;movable=1;resizable=1;rotatable=1;deletable=1;editable=1;locked=0;connectable=1;container=0;" parent="1" vertex="1">
          <mxGeometry x="-1649.999405034325" y="-275" width="24.000000000000004" height="24" as="geometry" />
        </mxCell>
        <mxCell id="KC_PsP3GR4GyeqaPWDaR-133" value="7" style="shape=ellipse;strokeColor=none;fillColor=#9e9e9e;fontColor=#ffffff;movable=1;resizable=1;rotatable=1;deletable=1;editable=1;locked=0;connectable=1;container=0;" parent="1" vertex="1">
          <mxGeometry x="-1649.999405034325" y="-240" width="24.000000000000004" height="24" as="geometry" />
        </mxCell>
        <mxCell id="Yd3rhnI4nX7q-07v0UTJ-2" value="" style="shape=ellipse;strokeColor=#82b366;fillColor=#d5e8d4;labelPosition=right;align=left;spacingLeft=10;html=1;container=0;movable=1;resizable=1;rotatable=1;deletable=1;editable=1;locked=0;connectable=1;" vertex="1" parent="1">
          <mxGeometry x="-1268.9794050343253" y="-601" width="24" height="24" as="geometry" />
        </mxCell>
        <mxCell id="Yd3rhnI4nX7q-07v0UTJ-3" value="" style="dashed=0;shape=mxgraph.gmdl.check;strokeColor=#ffffff;strokeWidth=2;movable=1;resizable=1;rotatable=1;deletable=1;editable=1;locked=0;connectable=1;container=0;" vertex="1" parent="1">
          <mxGeometry x="-1262.98" y="-594" width="12" height="10" as="geometry">
            <mxPoint x="-6" y="-5" as="offset" />
          </mxGeometry>
        </mxCell>
        <mxCell id="Yd3rhnI4nX7q-07v0UTJ-4" value="" style="shape=ellipse;strokeColor=#82b366;fillColor=#d5e8d4;labelPosition=right;align=left;spacingLeft=10;html=1;container=0;movable=1;resizable=1;rotatable=1;deletable=1;editable=1;locked=0;connectable=1;" vertex="1" parent="1">
          <mxGeometry x="-1257.9994050343253" y="-518" width="24" height="24" as="geometry" />
        </mxCell>
        <mxCell id="Yd3rhnI4nX7q-07v0UTJ-5" value="1" style="shape=ellipse;strokeColor=none;fillColor=#9e9e9e;fontColor=#ffffff;movable=1;resizable=1;rotatable=1;deletable=1;editable=1;locked=0;connectable=1;container=0;" vertex="1" parent="1">
          <mxGeometry x="-1257.9994050343248" y="-518" width="24.000000000000004" height="24" as="geometry" />
        </mxCell>
        <mxCell id="Yd3rhnI4nX7q-07v0UTJ-6" value="" style="shape=ellipse;strokeColor=#82b366;fillColor=#d5e8d4;labelPosition=right;align=left;spacingLeft=10;html=1;container=0;movable=1;resizable=1;rotatable=1;deletable=1;editable=1;locked=0;connectable=1;" vertex="1" parent="1">
          <mxGeometry x="-1257.9994050343253" y="-478" width="24" height="24" as="geometry" />
        </mxCell>
        <mxCell id="Yd3rhnI4nX7q-07v0UTJ-7" value="" style="dashed=0;shape=mxgraph.gmdl.check;strokeColor=#ffffff;strokeWidth=2;movable=1;resizable=1;rotatable=1;deletable=1;editable=1;locked=0;connectable=1;container=0;" vertex="1" parent="1">
          <mxGeometry x="-1251.9994050343253" y="-471" width="12" height="10" as="geometry">
            <mxPoint x="-6" y="-5" as="offset" />
          </mxGeometry>
        </mxCell>
        <mxCell id="Yd3rhnI4nX7q-07v0UTJ-8" value="" style="shape=ellipse;strokeColor=#82b366;fillColor=#d5e8d4;labelPosition=right;align=left;spacingLeft=10;html=1;container=0;movable=1;resizable=1;rotatable=1;deletable=1;editable=1;locked=0;connectable=1;" vertex="1" parent="1">
          <mxGeometry x="-1257.9994050343253" y="-438" width="24" height="24" as="geometry" />
        </mxCell>
        <mxCell id="Yd3rhnI4nX7q-07v0UTJ-9" value="" style="dashed=0;shape=mxgraph.gmdl.check;strokeColor=#ffffff;strokeWidth=2;movable=1;resizable=1;rotatable=1;deletable=1;editable=1;locked=0;connectable=1;container=0;" vertex="1" parent="1">
          <mxGeometry x="-1251.9994050343253" y="-431" width="12" height="10" as="geometry">
            <mxPoint x="-6" y="-5" as="offset" />
          </mxGeometry>
        </mxCell>
        <mxCell id="Yd3rhnI4nX7q-07v0UTJ-10" value="" style="shape=ellipse;strokeColor=#82b366;fillColor=#d5e8d4;labelPosition=right;align=left;spacingLeft=10;html=1;container=0;movable=1;resizable=1;rotatable=1;deletable=1;editable=1;locked=0;connectable=1;" vertex="1" parent="1">
          <mxGeometry x="-1257.9994050343253" y="-401" width="24" height="24" as="geometry" />
        </mxCell>
        <mxCell id="Yd3rhnI4nX7q-07v0UTJ-11" value="" style="dashed=0;shape=mxgraph.gmdl.check;strokeColor=#ffffff;strokeWidth=2;movable=1;resizable=1;rotatable=1;deletable=1;editable=1;locked=0;connectable=1;container=0;" vertex="1" parent="1">
          <mxGeometry x="-1251.9994050343253" y="-394" width="12" height="10" as="geometry">
            <mxPoint x="-6" y="-5" as="offset" />
          </mxGeometry>
        </mxCell>
        <mxCell id="Yd3rhnI4nX7q-07v0UTJ-12" value="" style="shape=ellipse;strokeColor=#82b366;fillColor=#d5e8d4;labelPosition=right;align=left;spacingLeft=10;html=1;container=0;movable=1;resizable=1;rotatable=1;deletable=1;editable=1;locked=0;connectable=1;" vertex="1" parent="1">
          <mxGeometry x="-1257.9994050343253" y="-361" width="24" height="24" as="geometry" />
        </mxCell>
        <mxCell id="Yd3rhnI4nX7q-07v0UTJ-13" value="" style="dashed=0;shape=mxgraph.gmdl.check;strokeColor=#ffffff;strokeWidth=2;movable=1;resizable=1;rotatable=1;deletable=1;editable=1;locked=0;connectable=1;container=0;" vertex="1" parent="1">
          <mxGeometry x="-1251.9994050343253" y="-354" width="12" height="10" as="geometry">
            <mxPoint x="-6" y="-5" as="offset" />
          </mxGeometry>
        </mxCell>
        <mxCell id="Yd3rhnI4nX7q-07v0UTJ-14" value="" style="shape=ellipse;strokeColor=#82b366;fillColor=#d5e8d4;labelPosition=right;align=left;spacingLeft=10;html=1;container=0;movable=1;resizable=1;rotatable=1;deletable=1;editable=1;locked=0;connectable=1;" vertex="1" parent="1">
          <mxGeometry x="-1257.9994050343253" y="-321" width="24" height="24" as="geometry" />
        </mxCell>
        <mxCell id="Yd3rhnI4nX7q-07v0UTJ-15" value="" style="dashed=0;shape=mxgraph.gmdl.check;strokeColor=#ffffff;strokeWidth=2;movable=1;resizable=1;rotatable=1;deletable=1;editable=1;locked=0;connectable=1;container=0;" vertex="1" parent="1">
          <mxGeometry x="-1251.9994050343253" y="-314" width="12" height="10" as="geometry">
            <mxPoint x="-6" y="-5" as="offset" />
          </mxGeometry>
        </mxCell>
        <mxCell id="Yd3rhnI4nX7q-07v0UTJ-16" value="" style="shape=ellipse;strokeColor=#82b366;fillColor=#d5e8d4;labelPosition=right;align=left;spacingLeft=10;html=1;container=0;movable=1;resizable=1;rotatable=1;deletable=1;editable=1;locked=0;connectable=1;" vertex="1" parent="1">
          <mxGeometry x="-1257.9994050343253" y="-286" width="24" height="24" as="geometry" />
        </mxCell>
        <mxCell id="Yd3rhnI4nX7q-07v0UTJ-17" value="" style="dashed=0;shape=mxgraph.gmdl.check;strokeColor=#ffffff;strokeWidth=2;movable=1;resizable=1;rotatable=1;deletable=1;editable=1;locked=0;connectable=1;container=0;" vertex="1" parent="1">
          <mxGeometry x="-1251.9994050343253" y="-279" width="12" height="10" as="geometry">
            <mxPoint x="-6" y="-5" as="offset" />
          </mxGeometry>
        </mxCell>
        <mxCell id="Yd3rhnI4nX7q-07v0UTJ-18" value="&lt;div&gt;&lt;br&gt;&lt;/div&gt;" style="shape=ellipse;strokeColor=#82b366;fillColor=#d5e8d4;labelPosition=right;align=left;spacingLeft=10;html=1;container=0;movable=1;resizable=1;rotatable=1;deletable=1;editable=1;locked=0;connectable=1;" vertex="1" parent="1">
          <mxGeometry x="-1257.9994050343253" y="-478" width="24" height="24" as="geometry" />
        </mxCell>
        <mxCell id="Yd3rhnI4nX7q-07v0UTJ-19" value="2" style="shape=ellipse;strokeColor=none;fillColor=#9e9e9e;fontColor=#ffffff;movable=1;resizable=1;rotatable=1;deletable=1;editable=1;locked=0;connectable=1;container=0;" vertex="1" parent="1">
          <mxGeometry x="-1257.9994050343248" y="-478" width="24.000000000000004" height="24" as="geometry" />
        </mxCell>
        <mxCell id="Yd3rhnI4nX7q-07v0UTJ-20" value="" style="shape=ellipse;strokeColor=#82b366;fillColor=#d5e8d4;labelPosition=right;align=left;spacingLeft=10;html=1;container=0;movable=1;resizable=1;rotatable=1;deletable=1;editable=1;locked=0;connectable=1;" vertex="1" parent="1">
          <mxGeometry x="-1257.9994050343253" y="-438" width="24" height="24" as="geometry" />
        </mxCell>
        <mxCell id="Yd3rhnI4nX7q-07v0UTJ-21" value="" style="shape=ellipse;strokeColor=#82b366;fillColor=#d5e8d4;labelPosition=right;align=left;spacingLeft=10;html=1;container=0;movable=1;resizable=1;rotatable=1;deletable=1;editable=1;locked=0;connectable=1;" vertex="1" parent="1">
          <mxGeometry x="-1257.9994050343253" y="-401" width="24" height="24" as="geometry" />
        </mxCell>
        <mxCell id="Yd3rhnI4nX7q-07v0UTJ-22" value="3" style="shape=ellipse;strokeColor=none;fillColor=#9e9e9e;fontColor=#ffffff;movable=1;resizable=1;rotatable=1;deletable=1;editable=1;locked=0;connectable=1;container=0;" vertex="1" parent="1">
          <mxGeometry x="-1257.9994050343248" y="-438" width="24.000000000000004" height="24" as="geometry" />
        </mxCell>
        <mxCell id="Yd3rhnI4nX7q-07v0UTJ-23" value="4" style="shape=ellipse;strokeColor=none;fillColor=#9e9e9e;fontColor=#ffffff;movable=1;resizable=1;rotatable=1;deletable=1;editable=1;locked=0;connectable=1;container=0;" vertex="1" parent="1">
          <mxGeometry x="-1257.9994050343248" y="-401" width="24.000000000000004" height="24" as="geometry" />
        </mxCell>
        <mxCell id="Yd3rhnI4nX7q-07v0UTJ-24" value="5" style="shape=ellipse;strokeColor=none;fillColor=#9e9e9e;fontColor=#ffffff;movable=1;resizable=1;rotatable=1;deletable=1;editable=1;locked=0;connectable=1;container=0;" vertex="1" parent="1">
          <mxGeometry x="-1257.9994050343248" y="-361" width="24.000000000000004" height="24" as="geometry" />
        </mxCell>
        <mxCell id="Yd3rhnI4nX7q-07v0UTJ-25" value="6" style="shape=ellipse;strokeColor=none;fillColor=#9e9e9e;fontColor=#ffffff;movable=1;resizable=1;rotatable=1;deletable=1;editable=1;locked=0;connectable=1;container=0;" vertex="1" parent="1">
          <mxGeometry x="-1257.9994050343248" y="-321" width="24.000000000000004" height="24" as="geometry" />
        </mxCell>
        <mxCell id="Yd3rhnI4nX7q-07v0UTJ-26" value="7" style="shape=ellipse;strokeColor=none;fillColor=#9e9e9e;fontColor=#ffffff;movable=1;resizable=1;rotatable=1;deletable=1;editable=1;locked=0;connectable=1;container=0;" vertex="1" parent="1">
          <mxGeometry x="-1257.9994050343248" y="-286" width="24.000000000000004" height="24" as="geometry" />
        </mxCell>
        <mxCell id="Yd3rhnI4nX7q-07v0UTJ-28" value="" style="shape=ellipse;strokeColor=#82b366;fillColor=#d5e8d4;labelPosition=right;align=left;spacingLeft=10;html=1;container=0;movable=1;resizable=1;rotatable=1;deletable=1;editable=1;locked=0;connectable=1;" vertex="1" parent="1">
          <mxGeometry x="-1397.9994050343253" y="-445" width="24" height="24" as="geometry" />
        </mxCell>
        <mxCell id="Yd3rhnI4nX7q-07v0UTJ-29" value="2" style="shape=ellipse;strokeColor=none;fillColor=#9e9e9e;fontColor=#ffffff;movable=1;resizable=1;rotatable=1;deletable=1;editable=1;locked=0;connectable=1;container=0;" vertex="1" parent="1">
          <mxGeometry x="-1397.9994050343248" y="-445" width="24.000000000000004" height="24" as="geometry" />
        </mxCell>
        <mxCell id="Yd3rhnI4nX7q-07v0UTJ-30" value="" style="shape=ellipse;strokeColor=#82b366;fillColor=#d5e8d4;labelPosition=right;align=left;spacingLeft=10;html=1;container=0;movable=1;resizable=1;rotatable=1;deletable=1;editable=1;locked=0;connectable=1;" vertex="1" parent="1">
          <mxGeometry x="-1397.9994050343253" y="-397" width="24" height="24" as="geometry" />
        </mxCell>
        <mxCell id="Yd3rhnI4nX7q-07v0UTJ-31" value="3" style="shape=ellipse;strokeColor=none;fillColor=#9e9e9e;fontColor=#ffffff;movable=1;resizable=1;rotatable=1;deletable=1;editable=1;locked=0;connectable=1;container=0;" vertex="1" parent="1">
          <mxGeometry x="-1397.9994050343248" y="-397" width="24.000000000000004" height="24" as="geometry" />
        </mxCell>
        <mxCell id="Yd3rhnI4nX7q-07v0UTJ-32" value="" style="shape=ellipse;strokeColor=#82b366;fillColor=#d5e8d4;labelPosition=right;align=left;spacingLeft=10;html=1;container=0;movable=1;resizable=1;rotatable=1;deletable=1;editable=1;locked=0;connectable=1;" vertex="1" parent="1">
          <mxGeometry x="-1397.9994050343253" y="-342" width="24" height="24" as="geometry" />
        </mxCell>
        <mxCell id="Yd3rhnI4nX7q-07v0UTJ-33" value="4" style="shape=ellipse;strokeColor=none;fillColor=#9e9e9e;fontColor=#ffffff;movable=1;resizable=1;rotatable=1;deletable=1;editable=1;locked=0;connectable=1;container=0;" vertex="1" parent="1">
          <mxGeometry x="-1397.9994050343248" y="-342" width="24.000000000000004" height="24" as="geometry" />
        </mxCell>
        <mxCell id="Yd3rhnI4nX7q-07v0UTJ-34" value="" style="shape=ellipse;strokeColor=#82b366;fillColor=#d5e8d4;labelPosition=right;align=left;spacingLeft=10;html=1;container=0;movable=1;resizable=1;rotatable=1;deletable=1;editable=1;locked=0;connectable=1;" vertex="1" parent="1">
          <mxGeometry x="-1397.9994050343253" y="-286" width="24" height="24" as="geometry" />
        </mxCell>
        <mxCell id="Yd3rhnI4nX7q-07v0UTJ-35" value="5" style="shape=ellipse;strokeColor=none;fillColor=#9e9e9e;fontColor=#ffffff;movable=1;resizable=1;rotatable=1;deletable=1;editable=1;locked=0;connectable=1;container=0;" vertex="1" parent="1">
          <mxGeometry x="-1397.9994050343248" y="-286" width="24.000000000000004" height="24" as="geometry" />
        </mxCell>
        <mxCell id="Yd3rhnI4nX7q-07v0UTJ-36" value="" style="shape=ellipse;strokeColor=#82b366;fillColor=#d5e8d4;labelPosition=right;align=left;spacingLeft=10;html=1;container=0;movable=1;resizable=1;rotatable=1;deletable=1;editable=1;locked=0;connectable=1;" vertex="1" parent="1">
          <mxGeometry x="-1397.9994050343253" y="-238" width="24" height="24" as="geometry" />
        </mxCell>
        <mxCell id="Yd3rhnI4nX7q-07v0UTJ-37" value="6" style="shape=ellipse;strokeColor=none;fillColor=#9e9e9e;fontColor=#ffffff;movable=1;resizable=1;rotatable=1;deletable=1;editable=1;locked=0;connectable=1;container=0;" vertex="1" parent="1">
          <mxGeometry x="-1397.9994050343248" y="-238" width="24.000000000000004" height="24" as="geometry" />
        </mxCell>
        <mxCell id="Yd3rhnI4nX7q-07v0UTJ-38" value="" style="shape=ellipse;strokeColor=#82b366;fillColor=#d5e8d4;labelPosition=right;align=left;spacingLeft=10;html=1;container=0;movable=1;resizable=1;rotatable=1;deletable=1;editable=1;locked=0;connectable=1;" vertex="1" parent="1">
          <mxGeometry x="-1397.9994050343253" y="-183" width="24" height="24" as="geometry" />
        </mxCell>
        <mxCell id="Yd3rhnI4nX7q-07v0UTJ-39" value="7" style="shape=ellipse;strokeColor=none;fillColor=#9e9e9e;fontColor=#ffffff;movable=1;resizable=1;rotatable=1;deletable=1;editable=1;locked=0;connectable=1;container=0;" vertex="1" parent="1">
          <mxGeometry x="-1397.9994050343248" y="-183" width="24.000000000000004" height="24" as="geometry" />
        </mxCell>
        <mxCell id="Yd3rhnI4nX7q-07v0UTJ-40" value="Objectives &amp;amp; resources" style="rounded=1;whiteSpace=wrap;html=1;fillColor=#fff2cc;strokeColor=#d6b656;fontStyle=1;fontSize=20;align=center;spacing=15;" vertex="1" parent="1">
          <mxGeometry x="-2520" y="-1075" width="251" height="44" as="geometry" />
        </mxCell>
        <mxCell id="Yd3rhnI4nX7q-07v0UTJ-41" value="Project-level design" style="rounded=1;whiteSpace=wrap;html=1;fillColor=#ffe6cc;strokeColor=#d79b00;fontStyle=1;fontSize=20;startSize=31;swimlaneFillColor=#E6E6E6;align=center;spacing=15;movable=1;resizable=1;rotatable=1;deletable=1;editable=1;locked=0;connectable=1;" vertex="1" parent="1">
          <mxGeometry x="-2511" y="-977" width="217" height="44" as="geometry" />
        </mxCell>
        <mxCell id="Yd3rhnI4nX7q-07v0UTJ-42" value="Target species" style="rounded=1;whiteSpace=wrap;html=1;fillColor=#e1d5e7;strokeColor=#9673a6;fontStyle=1;fontSize=20;align=center;spacing=15;" vertex="1" parent="1">
          <mxGeometry x="-2484" y="-905" width="169" height="44" as="geometry" />
        </mxCell>
        <mxCell id="Yd3rhnI4nX7q-07v0UTJ-43" value="Data analysis" style="rounded=1;whiteSpace=wrap;html=1;fillColor=#b0e3e6;strokeColor=#0e8088;fontStyle=1;fontSize=20;align=left;spacing=15;" vertex="1" parent="1">
          <mxGeometry x="-2480.5" y="-735" width="156" height="44" as="geometry" />
        </mxCell>
        <mxCell id="Yd3rhnI4nX7q-07v0UTJ-44" value="Recommendations" style="rounded=1;fillColor=#d5e8d4;strokeColor=#82b366;fontStyle=1;fontSize=20;align=center;spacing=15;whiteSpace=wrap;html=1;" vertex="1" parent="1">
          <mxGeometry x="-2486" y="-645" width="202" height="44" as="geometry" />
        </mxCell>
        <mxCell id="Yd3rhnI4nX7q-07v0UTJ-45" value="Deployment design" style="rounded=1;whiteSpace=wrap;html=1;fillColor=#ffff88;strokeColor=#36393d;fontStyle=1;fontSize=20;startSize=31;swimlaneFillColor=#E6E6E6;align=center;spacing=15;movable=1;resizable=1;rotatable=1;deletable=1;editable=1;locked=0;connectable=1;" vertex="1" parent="1">
          <mxGeometry x="-2511" y="-815" width="217" height="44" as="geometry" />
        </mxCell>
        <mxCell id="Yd3rhnI4nX7q-07v0UTJ-46" value="Duration / Timing" style="rounded=1;whiteSpace=wrap;html=1;fillColor=#ffe6cc;strokeColor=#d79b00;fontStyle=1;fontSize=20;startSize=31;swimlaneFillColor=#E6E6E6;align=center;spacing=15;movable=1;resizable=1;rotatable=1;deletable=1;editable=1;locked=0;connectable=1;" vertex="1" parent="1">
          <mxGeometry x="-2250" y="-1005" width="217" height="44" as="geometry" />
        </mxCell>
        <mxCell id="Yd3rhnI4nX7q-07v0UTJ-47" value="Study area &amp;amp; Site selection constraints" style="rounded=1;whiteSpace=wrap;html=1;fillColor=#ffe6cc;strokeColor=#d79b00;fontStyle=1;fontSize=20;startSize=31;swimlaneFillColor=#E6E6E6;align=center;spacing=15;movable=1;resizable=1;rotatable=1;deletable=1;editable=1;locked=0;connectable=1;" vertex="1" parent="1">
          <mxGeometry x="-2250" y="-935" width="399" height="44" as="geometry" />
        </mxCell>
        <mxCell id="Yd3rhnI4nX7q-07v0UTJ-48" value="Equipment &amp;amp; Deployment" style="rounded=1;whiteSpace=wrap;html=1;fillColor=#ffff88;strokeColor=#36393d;fontStyle=1;fontSize=20;startSize=31;swimlaneFillColor=#E6E6E6;align=center;spacing=15;movable=1;resizable=1;rotatable=1;deletable=1;editable=1;locked=0;connectable=1;" vertex="1" parent="1">
          <mxGeometry x="-2260" y="-820" width="272" height="44" as="geometry" />
        </mxCell>
        <mxCell id="Yd3rhnI4nX7q-07v0UTJ-49" value="&lt;font color=&quot;#999999&quot; style=&quot;forced-color-adjust: none; font-family: Helvetica; font-size: 12px; font-style: normal; font-variant-ligatures: normal; font-variant-caps: normal; font-weight: 400; letter-spacing: normal; orphans: 2; text-align: left; text-indent: 0px; text-transform: none; widows: 2; word-spacing: 0px; -webkit-text-stroke-width: 0px; white-space: nowrap; background-color: rgb(251, 251, 251); text-decoration-thickness: initial; text-decoration-style: initial; text-decoration-color: initial;&quot;&gt;Equipment &amp;amp;&amp;nbsp;&lt;/font&gt;&lt;div style=&quot;forced-color-adjust: none; color: rgb(0, 0, 0); font-family: Helvetica; font-size: 12px; font-style: normal; font-variant-ligatures: normal; font-variant-caps: normal; font-weight: 400; letter-spacing: normal; orphans: 2; text-align: left; text-indent: 0px; text-transform: none; widows: 2; word-spacing: 0px; -webkit-text-stroke-width: 0px; white-space: nowrap; background-color: rgb(251, 251, 251); text-decoration-thickness: initial; text-decoration-style: initial; text-decoration-color: initial;&quot;&gt;&lt;font color=&quot;#999999&quot; style=&quot;forced-color-adjust: none;&quot;&gt;Deployment&lt;/font&gt;&lt;/div&gt;" style="text;whiteSpace=wrap;html=1;" vertex="1" parent="1">
          <mxGeometry x="-2190" y="-690" width="110" height="50" as="geometry" />
        </mxCell>
      </root>
    </mxGraphModel>
  </diagram>
</mxfile>
